<?xml version="1.0" encoding="utf-8"?>
<!-- Generator: Adobe Illustrator 26.2.1, SVG Export Plug-In . SVG Version: 6.00 Build 0)  -->
<svg version="1.1" id="a" xmlns="http://www.w3.org/2000/svg" xmlns:xlink="http://www.w3.org/1999/xlink" x="0px" y="0px"
	 viewBox="0 0 1264.8 357.9" enable-background="new 0 0 1264.8 357.9" xml:space="preserve">
<g id="b">
	<g id="c">
		<path fill="#FFFFFF" d="M178.4,155.6L27.2,4.4C20.7-1.7,10.5-1.4,4.4,5.1c-5.8,6.2-5.9,15.9,0,22.1l173.9,173.9L178.4,155.6
			L178.4,155.6z"/>
		<polygon fill="#FFFFFF" points="178.8,232.6 25.5,79.4 25.4,124.9 178.3,277.8 		"/>
		<path fill="#FFFFFF" d="M25.4,201.7L176.6,353c6.7,6.9,18.1,6.5,24.2-1.2c2.8-3.5,4-8.2,3.2-12.6c-0.6-3.6-2.3-6.6-4.7-9
			L25.5,156.3L25.4,201.7z"/>
	</g>
</g>
<g>
	<path fill="#FFFFFF" d="M233.5,162.6h78v31.8h-78v52.4h86.3v31.7H200.1v-195h118.1v31.8h-84.7V162.6z"/>
	<path fill="#FFFFFF" d="M540.4,193.5v84.9H507v-76.3c0-18.1-7-27.9-23.7-27.9c-17.5,0-25.9,17-25.9,17v87.2H424v-76.3
		c0-18.1-7-27.9-23.7-27.9c-17.5,0-25.9,17-25.9,17v87.2H341v-132h31.2v19.2c0,0,12-22.6,39-22.6c31.8,0,40.9,23.1,40.9,23.1
		s11.1-23.1,42.1-23.1C521,143.1,540.5,161.7,540.4,193.5L540.4,193.5z"/>
	<path fill="#FFFFFF" d="M593.9,146.4v17.3c0,0,12.5-20.6,39.8-20.6c34.3,0,64.3,28.7,64.3,69.3s-30.1,69.4-64.3,69.4
		c-20.9,0-32.9-11.4-37.3-17v77.7H563V146.4H593.9L593.9,146.4z M596.4,232.2c0,0,9.5,18.4,31.5,18.4s36.2-16.4,36.2-38.2
		s-13.7-38.2-36.2-38.2s-31.5,18.4-31.5,18.4V232.2L596.4,232.2z"/>
	<path fill="#FFFFFF" d="M831.8,192.4v86.1h-30.9v-16.7c0,0-13.7,20-43.5,20c-24.8,0-47.6-16.1-47.6-44.3
		c0-25.4,23.1-43.7,51.8-43.7c24.2,0,36.8,9.5,36.8,9.5v-7.5c0-17.3-16.7-22.8-28.4-22.8c-19.2,0-39.5,9.8-39.5,9.8L719.5,155
		c0,0,24.5-12,52.1-12C809.5,143.1,831.7,162.3,831.8,192.4L831.8,192.4z M798.3,238.6v-13.6c0,0-12-6.7-30.1-6.7
		c-10.3,0-24.5,4.5-24.5,18.7s13.7,17,24,17C787.8,253.9,798.3,238.6,798.3,238.6L798.3,238.6z"/>
	<path fill="#FFFFFF" d="M949.6,234.4l22,22.3c0,0-18.9,25.1-54.6,25.1c-39.5,0-71-30.6-71-69.4s31.5-69.4,71-69.4
		c35.4,0,54,24.5,54,24.5l-23.1,20.6c0,0-10.9-13.9-30.9-13.9c-22.6,0-37,17.6-37,38.2s14.5,38.2,37,38.2S949.6,234.4,949.6,234.4
		L949.6,234.4z"/>
	<path fill="#FFFFFF" d="M1077.1,83.5h33.4v133.7c0,40.9-25.3,64.6-66.6,64.6c-39,0-57.1-32.6-57.1-32.6l24.5-20.6
		c0,0,12.2,21.4,32.6,21.4c25.6,0,33.1-16.7,33.1-31.8L1077.1,83.5L1077.1,83.5z"/>
	<path fill="#FFFFFF" d="M1195.2,197.1c-28.7-10-61-25.6-61-61.8c0-27.6,24.5-55.2,63.8-55.2s63.5,30.9,63.5,30.9l-23.1,22.8
		c0,0-16.2-22-40.4-22c-16.7,0-29.8,10.3-29.8,23.4c0,17,15.3,22.3,42.1,32.3c29.8,11.1,54.6,24.5,54.6,59.9s-31.2,54.3-68,54.3
		c-48.7,0-71.3-39.8-71.3-39.8l25.1-21.2c0,0,16.7,29.2,46.2,29.2c16.7,0,34-6.7,34-22.6S1218.3,205.2,1195.2,197.1L1195.2,197.1z"
		/>
</g>
</svg>
