<?xml version="1.0" encoding="UTF-8"?><svg id="a" xmlns="http://www.w3.org/2000/svg" viewBox="0 0 1264.84 357.85"><g id="b"><g id="c"><path d="M178.42,155.65L27.17,4.4C20.7-1.71,10.5-1.42,4.4,5.05c-5.85,6.2-5.86,15.88-.03,22.09L178.26,201.05l.16-45.41Z"/><polygon points="178.76 232.62 25.51 79.38 25.35 124.92 178.26 277.83 178.76 232.62"/><path d="M25.35,201.7l151.25,151.25c6.68,6.91,18.05,6.55,24.24-1.24,2.8-3.52,3.96-8.16,3.21-12.59-.61-3.6-2.28-6.64-4.66-8.95L25.51,156.31l-.16,45.39Z"/></g></g><g><path d="M233.52,162.57h77.99v31.75h-77.99v52.36h86.34v31.75h-119.76V83.47h118.09v31.75h-84.67v47.35Z"/><path d="M540.44,193.49v84.95h-33.42v-76.31c0-18.1-6.96-27.85-23.67-27.85-17.55,0-25.9,16.99-25.9,16.99v87.18h-33.42v-76.31c0-18.1-6.96-27.85-23.67-27.85-17.55,0-25.9,16.99-25.9,16.99v87.18h-33.42V146.42h31.19v19.22s11.98-22.56,38.99-22.56c31.75,0,40.94,23.12,40.94,23.12,0,0,11.14-23.12,42.06-23.12,26.74,0,46.23,18.66,46.23,50.41Z"/><path d="M593.91,146.42v17.27s12.53-20.61,39.83-20.61c34.26,0,64.34,28.69,64.34,69.35s-30.08,69.35-64.34,69.35c-20.89,0-32.87-11.42-37.32-16.99v77.71h-33.42V146.42h30.92Zm2.51,85.78s9.47,18.38,31.47,18.38,36.21-16.43,36.21-38.16-13.65-38.16-36.21-38.16-31.47,18.38-31.47,18.38v39.55Z"/><path d="M831.76,192.37v86.06h-30.92v-16.71s-13.65,20.05-43.45,20.05c-24.79,0-47.63-16.15-47.63-44.28,0-25.35,23.12-43.73,51.8-43.73,24.23,0,36.76,9.47,36.76,9.47v-7.52c0-17.27-16.71-22.84-28.41-22.84-19.22,0-39.55,9.75-39.55,9.75l-10.86-27.57s24.51-11.98,52.08-11.98c37.88,0,60.16,19.22,60.16,49.3Zm-33.42,46.23v-13.65s-11.98-6.68-30.08-6.68c-10.3,0-24.51,4.46-24.51,18.66s13.65,16.99,23.95,16.99c20.05,0,30.64-15.32,30.64-15.32Z"/><path d="M949.57,234.43l22,22.28s-18.94,25.07-54.59,25.07c-39.55,0-71.02-30.64-71.02-69.35s31.47-69.35,71.02-69.35c35.37,0,54.03,24.51,54.03,24.51l-23.12,20.61s-10.86-13.93-30.92-13.93c-22.56,0-37.04,17.55-37.04,38.16s14.48,38.16,37.04,38.16,32.59-16.15,32.59-16.15Z"/><path d="M1077.12,83.47h33.42V217.16c0,40.94-25.35,64.62-66.57,64.62-38.99,0-57.1-32.59-57.1-32.59l24.51-20.61s12.25,21.45,32.59,21.45c25.62,0,33.14-16.71,33.14-31.75V83.47Z"/><path d="M1195.21,197.11c-28.69-10.03-61-25.62-61-61.83,0-27.57,24.51-55.15,63.78-55.15s63.5,30.92,63.5,30.92l-23.12,22.84s-16.15-22-40.39-22c-16.71,0-29.8,10.31-29.8,23.4,0,16.99,15.32,22.28,42.06,32.31,29.8,11.14,54.59,24.51,54.59,59.88s-31.19,54.31-67.96,54.31c-48.74,0-71.3-39.83-71.3-39.83l25.07-21.17s16.71,29.24,46.23,29.24c16.71,0,33.98-6.68,33.98-22.56s-12.53-22.28-35.65-30.36Z"/></g></svg>