<svg role="img" viewBox="0 0 24 24" xmlns="http://www.w3.org/2000/svg"><title>Nintendo Switch</title><path d="M14.176 24h3.674c3.376 0 6.15-2.774 6.15-6.15V6.15C24 2.775 21.226 0 17.85 0H14.1c-.074 0-.15.074-.15.15v23.7c-.001.076.075.15.226.15zm4.574-13.199c1.35 0 2.4 1.05 2.4 2.4s-1.05 2.4-2.4 2.4-2.4-1.05-2.4-2.4 1.05-2.4 2.4-2.4zM9.824 0H6.15C2.775 0 0 2.775 0 6.15v11.7C0 21.226 2.775 24 6.15 24h3.674c.075 0 .15-.074.15-.15V.15C9.975.075 9.899 0 9.824 0zm-4.5 15.6c-1.35 0-2.4-1.05-2.4-2.4s1.05-2.4 2.4-2.4 2.4 1.05 2.4 2.4-1.05 2.4-2.4 2.4z"/></svg>
